<svg width="17" height="17" viewBox="0 0 17 17" fill="none" xmlns="http://www.w3.org/2000/svg">
<path d="M5.77734 7.96875H2.19141C0.982813 7.96875 0 6.98594 0 5.77734V2.19141C0 0.982813 0.982813 0 2.19141 0H5.77734C6.98594 0 7.96875 0.982813 7.96875 2.19141V5.77734C7.96875 6.98594 6.98594 7.96875 5.77734 7.96875ZM2.19141 1.0625C1.56719 1.0625 1.0625 1.56719 1.0625 2.19141V5.77734C1.0625 6.40156 1.56719 6.90625 2.19141 6.90625H5.77734C6.40156 6.90625 6.90625 6.40156 6.90625 5.77734V2.19141C6.90625 1.56719 6.40156 1.0625 5.77734 1.0625H2.19141Z" fill="white"/>
<path d="M14.8086 7.96875H11.2227C10.0141 7.96875 9.03125 6.98594 9.03125 5.77734V2.19141C9.03125 0.982813 10.0141 0 11.2227 0H14.8086C16.0172 0 17 0.982813 17 2.19141V5.77734C17 6.98594 16.0172 7.96875 14.8086 7.96875ZM11.2227 1.0625C10.5984 1.0625 10.0938 1.56719 10.0938 2.19141V5.77734C10.0938 6.40156 10.5984 6.90625 11.2227 6.90625H14.8086C15.4328 6.90625 15.9375 6.40156 15.9375 5.77734V2.19141C15.9375 1.56719 15.4328 1.0625 14.8086 1.0625H11.2227Z" fill="white"/>
<path d="M13.0156 17C10.8198 17 9.03125 15.2115 9.03125 13.0156C9.03125 10.8198 10.8198 9.03125 13.0156 9.03125C15.2115 9.03125 17 10.8198 17 13.0156C17 15.2115 15.2115 17 13.0156 17ZM13.0156 10.0938C11.4042 10.0938 10.0938 11.4042 10.0938 13.0156C10.0938 14.6271 11.4042 15.9375 13.0156 15.9375C14.6271 15.9375 15.9375 14.6271 15.9375 13.0156C15.9375 11.4042 14.6271 10.0938 13.0156 10.0938Z" fill="white"/>
<path d="M5.77734 17H2.19141C0.982813 17 0 16.0172 0 14.8086V11.2227C0 10.0141 0.982813 9.03125 2.19141 9.03125H5.77734C6.98594 9.03125 7.96875 10.0141 7.96875 11.2227V14.8086C7.96875 16.0172 6.98594 17 5.77734 17ZM2.19141 10.0938C1.56719 10.0938 1.0625 10.5984 1.0625 11.2227V14.8086C1.0625 15.4328 1.56719 15.9375 2.19141 15.9375H5.77734C6.40156 15.9375 6.90625 15.4328 6.90625 14.8086V11.2227C6.90625 10.5984 6.40156 10.0938 5.77734 10.0938H2.19141Z" fill="white"/>
</svg>
