<svg width="13" height="19" viewBox="0 0 13 19" fill="none" xmlns="http://www.w3.org/2000/svg">
<path d="M8.54658 1.93454C9.50945 1.03311 11.1108 1.71122 11.1108 3.04744V9.06177L11.4314 9.38238C12.1086 10.055 12.4792 10.9518 12.4838 11.9034L12.4838 11.9035C12.4838 12.2274 12.4847 12.504 12.4855 12.7434C12.4895 13.8904 12.4905 14.1828 12.3696 14.7271L12.3695 14.7275C12.3302 14.8892 12.173 14.988 12.0152 14.9535L12.0147 14.9534C11.8529 14.9141 11.7542 14.7569 11.7887 14.5991L11.7887 14.599C11.8954 14.1208 11.8943 13.8476 11.8902 12.7776C11.8893 12.5321 11.8882 12.2448 11.8882 11.9035C11.8882 11.1048 11.5814 10.3605 11.0174 9.79647L9.8269 8.60593L8.68103 7.46005C8.68097 7.46 8.68092 7.45995 8.68087 7.4599C8.58035 7.36373 8.42185 7.36426 8.3264 7.45971C7.75789 8.02821 7.75789 8.94585 8.32191 9.51434L8.32196 9.51439C8.49525 9.69007 8.6427 9.83795 8.76891 9.96453C9.00152 10.1978 9.16198 10.3587 9.27904 10.488C9.46074 10.6886 9.53954 10.8147 9.62249 11.0175M8.54658 1.93454L9.49234 11.9444L9.49535 11.9669C9.6429 11.9473 9.75148 11.8241 9.75148 11.6762C9.75148 11.4506 9.71004 11.2294 9.62249 11.0175M8.54658 1.93454C8.14366 0.922327 6.82941 0.650105 6.05751 1.422C5.77145 1.70806 5.60987 2.09115 5.60987 2.49735V5.93232C4.67859 5.20625 3.29558 5.785 3.16353 6.96504C2.26322 6.31581 0.977269 6.9612 0.977269 8.09375V13.6856C0.977269 16.3304 3.12872 18.4819 5.77353 18.4819H7.68295C9.03506 18.4819 10.3323 17.9063 11.2413 16.9014L11.2415 16.9012C11.3496 16.7784 11.34 16.5915 11.2216 16.4829L11.2213 16.4826C11.0985 16.3746 10.9116 16.3842 10.8031 16.5025L10.803 16.5027C10.0071 17.3844 8.86761 17.8909 7.68295 17.8909H5.77353C3.45387 17.8909 1.56828 16.0053 1.56828 13.6856V11.6844C2.24642 12.1614 3.19677 11.9413 3.58787 11.1968C4.32345 11.9567 5.58586 11.7553 6.04992 10.8062C6.13947 10.7561 6.20542 10.66 6.20542 10.5487V10.5428V10.5368V10.5307V10.5245V10.5182V10.5117V10.5052V10.4985V10.4917V10.4849V10.4779V10.4708V10.4636V10.4563V10.4489V10.4414V10.4338V10.4261V10.4183V10.4104V10.4023V10.3942V10.386V10.3776V10.3692V10.3607V10.352V10.3433V10.3345V10.3256V10.3165V10.3074V10.2982V10.2889V10.2794V10.2699V10.2603V10.2506V10.2408V10.2309V10.2209V10.2108V10.2007V10.1904V10.18V10.1696V10.159V10.1484V10.1377V10.1268V10.1159V10.1049V10.0938V10.0827V10.0714V10.0601V10.0486V10.0371V10.0255V10.0138V10.002V9.99013V9.97817V9.96613V9.95401V9.9418V9.92951V9.91714V9.90469V9.89215V9.87953V9.86683V9.85405V9.84119V9.82825V9.81523V9.80214V9.78896V9.7757V9.76237V9.74896V9.73548V9.72192V9.70828V9.69456V9.68077V9.66691V9.65297V9.63896V9.62488V9.61072V9.59649V9.58219V9.56781V9.55337V9.53885V9.52427V9.50961V9.49488V9.48009V9.46523V9.45029V9.43529V9.42023V9.40509V9.38989V9.37463V9.35929V9.34389V9.32843V9.31291V9.29731V9.28166V9.26594V9.25016V9.23432V9.21841V9.20245V9.18642V9.17033V9.15419V9.13798V9.12171V9.10539V9.089V9.07256V9.05606V9.0395V9.02289V9.00622V8.98949V8.97271V8.95587V8.93898V8.92204V8.90504V8.88799V8.87088V8.85372V8.83651V8.81925V8.80194V8.78457V8.76716V8.7497V8.73218V8.71462V8.69701V8.67935V8.66164V8.64389V8.62608V8.60824V8.59034V8.5724V8.55442V8.53638V8.51831V8.50019V8.48203V8.46382V8.44558V8.42728V8.40895V8.39058V8.37216V8.35371V8.33521V8.31668V8.2981V8.27949V8.26084V8.24215V8.22342V8.20465V8.18585V8.16702V8.14814V8.12923V8.11029V8.09131V8.0723V8.05325V8.03417V8.01506V7.99591V7.97673V7.95752V7.93828V7.91901V7.89971V7.88038V7.86101V7.84162V7.8222V7.80276V7.78328V7.76378V7.74425V7.72469V7.70511V7.6855V7.66587V7.64621V7.62653V7.60682V7.58709V7.56734V7.54756V7.52777V7.50795V7.4881V7.46824V7.44836V7.42846V7.40853V7.38859V7.36863V7.34865V7.32865V7.30864V7.2886V7.26855V7.24849V7.22841V7.20831V7.1882V7.16807V7.14793V7.12778V7.10761V7.08743V7.06723V7.04703V7.02681V7.00658V6.98634V6.96609V6.94583V6.92557V6.90529V6.885V6.86471V6.8444V6.82409V6.80377V6.78345V6.76312V6.74279V6.72244V6.7021V6.68175V6.66139V6.64104V6.62068V6.60031V6.57995V6.55958V6.53921V6.51884V6.49847V6.4781V6.45773V6.43736V6.41699V6.39662V6.37626V6.35589V6.33553V6.31518V6.29482V6.27447V6.25413V6.23379V6.21346V6.19313V6.1728V6.15249V6.13218V6.11188V6.09159V6.0713V6.05103V6.03076V6.0105V5.99025V5.97002V5.94979V5.92958V5.90938V5.88918V5.86901V5.84884V5.82869V5.80855V5.78843V5.76832V5.74823V5.72815V5.70809V5.68804V5.66802V5.648V5.62801V5.60804V5.58808V5.56814V5.54822V5.52832V5.50845V5.48859V5.46875V5.44894V5.42914V5.40937V5.38963V5.3699V5.3502V5.33052V5.31087V5.29125V5.27164V5.25207V5.23252V5.213V5.1935V5.17403V5.15459V5.13518V5.11579V5.09644V5.07712V5.05782V5.03856V5.01932V5.00012V4.98095V4.96181V4.94271V4.92364V4.9046V4.88559V4.86662V4.84768V4.82878V4.80992V4.79109V4.7723V4.75354V4.73482V4.71614V4.6975V4.67889V4.66033V4.6418V4.62332V4.60487V4.58647V4.5681V4.54978V4.5315V4.51326V4.49507V4.47692V4.45881V4.44074V4.42272V4.40475V4.38682V4.36894V4.3511V4.33331V4.31557V4.29787V4.28022V4.26262V4.24507V4.22757V4.21012V4.19272V4.17536V4.15806V4.14081V4.12362V4.10647V4.08938V4.07234V4.05535V4.03842V4.02154V4.00472V3.98795V3.97124V3.95458V3.93798V3.92144V3.90495V3.88852V3.87215V3.85584V3.83959V3.8234V3.80726V3.79119V3.77518V3.75923V3.74334V3.72751V3.71174V3.69604V3.6804V3.66483V3.64931V3.63387V3.61849V3.60317V3.58792V3.57273V3.55762V3.54257V3.52758V3.51267V3.49782V3.48304V3.46833V3.45369V3.43912V3.42462V3.4102V3.39584V3.38156V3.36734V3.3532V3.33914V3.32514V3.31122V3.29738V3.28361V3.26991V3.25629V3.24275V3.22928V3.21589V3.20258V3.18934V3.17618V3.1631V3.1501V3.13718V3.12434V3.11158V3.0989V3.0863V3.07379V3.06135V3.049V3.03673V3.02454V3.01244V3.00042V2.98849V2.97664V2.96487V2.9532V2.9416V2.9301V2.91868V2.90735V2.89611V2.88495V2.87389V2.86291V2.85202V2.84123V2.83052V2.81991V2.80938V2.79895V2.78861V2.77836V2.76821V2.75815V2.74818V2.73831V2.72853V2.71885V2.70926V2.69977V2.69037V2.68108V2.67188V2.66277V2.65377V2.64486V2.63606V2.62735V2.61874V2.61023V2.60183V2.59352V2.58532V2.57721V2.56921V2.56132V2.55352V2.54583V2.53825V2.53077V2.52339V2.51612V2.50895V2.50189C6.20542 2.2534 6.30301 2.01815 6.47619 1.84048C7.05761 1.25922 8.06937 1.66775 8.06937 2.50189V6.91686L8.54658 1.93454ZM9.62249 11.0175L9.60145 11.0261L9.62246 11.0174C9.62247 11.0174 9.62248 11.0174 9.62249 11.0175ZM9.1557 11.4266C9.15736 11.434 9.15895 11.4414 9.16047 11.4489C9.15303 11.4503 9.14559 11.4518 9.13817 11.4533C9.13665 11.4458 9.13506 11.4384 9.1334 11.431C9.14083 11.4296 9.14826 11.4281 9.1557 11.4266ZM8.8305 10.8737L8.83059 10.8738L8.84678 10.8578L8.83048 10.8737C8.83049 10.8737 8.8305 10.8737 8.8305 10.8737ZM7.89863 9.92821L7.9148 9.91224L7.89861 9.92819L7.89863 9.92821ZM8.93105 2.39067L8.93111 2.39061C9.51252 1.80476 10.5243 2.21326 10.5243 3.04744V8.47076L9.09471 7.04113L9.09441 7.04085C8.96896 6.91987 8.81742 6.84175 8.66038 6.81096V3.04744C8.66038 2.79884 8.75803 2.56369 8.93105 2.39067ZM11.8441 15.4293L11.8438 15.4292C11.6965 15.3555 11.5188 15.4142 11.4495 15.5624C11.4313 15.5988 11.4136 15.6341 11.3916 15.6693L11.3915 15.6693L11.3907 15.6708C11.2873 15.8678 11.4301 16.1042 11.6518 16.1042C11.7524 16.1042 11.8198 16.0632 11.869 16.0066C11.91 15.9594 11.9387 15.9008 11.9642 15.8488C11.9685 15.8401 11.9726 15.8316 11.9767 15.8234L11.9769 15.8231C12.0459 15.6801 11.9868 15.5031 11.8441 15.4293ZM3.15946 10.5487C3.15946 10.9862 2.80139 11.3443 2.36387 11.3443C1.92634 11.3443 1.56828 10.9862 1.56828 10.5487V8.09375C1.56828 7.65622 1.92634 7.29816 2.36387 7.29816C2.80139 7.29816 3.15946 7.65622 3.15946 8.09375V10.5487ZM4.68244 11.0715C4.16763 11.0715 3.75046 10.6544 3.75046 10.1395V10.1375V10.1354V10.1333V10.1311V10.1289V10.1266V10.1243V10.1219V10.1195V10.1171V10.1146V10.1121V10.1095V10.1069V10.1042V10.1015V10.0988V10.096V10.0932V10.0903V10.0874V10.0844V10.0814V10.0784V10.0753V10.0722V10.0691V10.0659V10.0626V10.0594V10.0561V10.0527V10.0493V10.0459V10.0424V10.0389V10.0354V10.0318V10.0281V10.0245V10.0208V10.017V10.0133V10.0094V10.0056V10.0017V9.99778V9.99382V9.98983V9.98579V9.98172V9.97761V9.97347V9.96929V9.96508V9.96083V9.95655V9.95223V9.94787V9.94349V9.93906V9.93461V9.93011V9.92559V9.92103V9.91644V9.91181V9.90716V9.90246V9.89774V9.89298V9.88819V9.88337V9.87852V9.87363V9.86871V9.86376V9.85878V9.85377V9.84873V9.84365V9.83855V9.83341V9.82825V9.82305V9.81782V9.81257V9.80728V9.80197V9.79662V9.79125V9.78585V9.78042V9.77495V9.76947V9.76395V9.75841V9.75283V9.74723V9.7416V9.73595V9.73027V9.72456V9.71882V9.71306V9.70727V9.70145V9.69561V9.68974V9.68385V9.67793V9.67198V9.66601V9.66002V9.654V9.64795V9.64188V9.63579V9.62967V9.62353V9.61736V9.61117V9.60496V9.59872V9.59246V9.58618V9.57987V9.57354V9.56719V9.56082V9.55442V9.548V9.54156V9.5351V9.52862V9.52212V9.51559V9.50905V9.50248V9.4959V9.48929V9.48266V9.47601V9.46935V9.46266V9.45595V9.44923V9.44248V9.43572V9.42894V9.42214V9.41532V9.40848V9.40162V9.39475V9.38786V9.38095V9.37402V9.36708V9.36012V9.35314V9.34615V9.33914V9.33211V9.32506V9.31801V9.31093V9.30384V9.29673V9.28961V9.28248V9.27532V9.26816V9.26098V9.25378V9.24657V9.23935V9.23211V9.22486V9.2176V9.21032V9.20303V9.19572V9.18841V9.18108V9.17374V9.16638V9.15902V9.15164V9.14425V9.13685V9.12943V9.12201V9.11457V9.10713V9.09967V9.0922V9.08472V9.07724V9.06974V9.06223V9.05471V9.04719V9.03965V9.0321V9.02455V9.01699V9.00941V9.00183V8.99425V8.98665V8.97905V8.97143V8.96381V8.95619V8.94855V8.94091V8.93326V8.92561V8.91795V8.91028V8.90261V8.89493V8.88724V8.87955V8.87185V8.86415V8.85644V8.84873V8.84101V8.83329V8.82557V8.81784V8.8101V8.80237V8.79462V8.78688V8.77913V8.77138V8.76363V8.75587V8.74811V8.74035V8.73258V8.72482V8.71705V8.70928V8.7015V8.69373V8.68596V8.67818V8.6704V8.66263V8.65485V8.64707V8.63929V8.63151V8.62374V8.61596V8.60818V8.60041V8.59263V8.58486V8.57708V8.56931V8.56154V8.55377V8.546V8.53824V8.53048V8.52272V8.51496V8.50721V8.49945V8.49171V8.48396V8.47622V8.46848V8.46075V8.45302V8.44529V8.43757V8.42985V8.42214V8.41444V8.40673V8.39904V8.39135V8.38366V8.37598V8.36831V8.36064V8.35298V8.34532V8.33768V8.33003V8.3224V8.31477V8.30715V8.29954V8.29194V8.28434V8.27675V8.26917V8.2616V8.25404V8.24648V8.23894V8.2314V8.22387V8.21636V8.20885V8.20135V8.19386V8.18638V8.17892V8.17146V8.16401V8.15658V8.14915V8.14174V8.13434V8.12695V8.11957V8.1122V8.10485V8.09751V8.09018V8.08286V8.07556V8.06827V8.06099V8.05372V8.04647V8.03924V8.03201V8.0248V8.01761V8.01043V8.00326V7.99611V7.98897V7.98185V7.97475V7.96766V7.96058V7.95352V7.94648V7.93945V7.93244V7.92545V7.91847V7.91151V7.90456V7.89764V7.89073V7.88384V7.87696V7.87011V7.86327V7.85645V7.84965V7.84287V7.8361V7.82936V7.82263V7.81593V7.80924V7.80257V7.79592V7.7893V7.78269V7.7761V7.76954V7.76299V7.75647V7.74996V7.74348V7.73702V7.73058V7.72416V7.71777V7.7114V7.70504V7.69872V7.69241V7.68613V7.67987V7.67363V7.66742V7.66123V7.65506V7.64892V7.6428V7.6367V7.63064V7.62459V7.61857V7.61257V7.6066V7.60066V7.59474V7.58885V7.58298V7.57713V7.57132V7.56553V7.55977V7.55403V7.54832V7.54264V7.53698V7.53135V7.52575V7.52018V7.51464V7.50912V7.50363V7.49817V7.49274V7.48734V7.48196V7.47662V7.4713V7.46602V7.46076V7.45554V7.45034V7.44518V7.44004V7.43493V7.42986V7.42482V7.41981V7.41482V7.40987V7.40496V7.40007V7.39522V7.39039V7.3856V7.38085V7.37612V7.37143V7.36677V7.36215V7.35755V7.353V7.34847V7.34398V7.33952V7.3351V7.33071V7.32636V7.32204V7.31776V7.31351V7.30929V7.30512V7.30097V7.29687V7.2928V7.28876V7.28476V7.2808V7.27688V7.27299V7.26914V7.26532V7.26155V7.25781V7.25411V7.25044V7.24682V7.24323V7.23969V7.23618V7.2327V7.22927V7.22588V7.22253V7.21921V7.21594V7.2127V7.20951V7.20636V7.20324V7.20017V7.19714V7.19415V7.1912V7.18829V7.18542V7.18259V7.17981V7.17707V7.17437V7.17171V7.16909V7.16652V7.16399V7.1615V7.15906V7.15666V7.1543V7.15199V7.14972V7.1475V7.14532V7.14318V7.14109V7.13904C3.75046 6.62423 4.16763 6.20706 4.68244 6.20706C5.19725 6.20706 5.61441 6.62423 5.61441 7.13904V10.1395C5.61441 10.6543 5.19277 11.0715 4.68244 11.0715Z" fill="white" stroke="white" stroke-width="0.0454622"/>
</svg>
