<svg width="17" height="17" viewBox="0 0 17 17" fill="none" xmlns="http://www.w3.org/2000/svg">
<path d="M12.2166 17C11.6677 17 11.1231 16.9026 10.5919 16.7078C8.24997 15.8578 6.07185 14.4677 4.30101 12.6969C2.53018 10.926 1.14007 8.74792 0.290075 6.40599C0.0155954 5.65339 -0.0640921 4.87422 0.0510121 4.09505C0.157262 3.36458 0.440595 2.65625 0.865595 2.04531C1.29502 1.42995 1.87054 0.920833 2.52575 0.566667C3.22523 0.190365 3.98669 0 4.79242 0C5.04476 0 5.25726 0.177083 5.31039 0.420573L6.14268 4.31198C6.18252 4.48906 6.12497 4.67057 6.00101 4.79896L4.57549 6.22448C5.92132 8.89844 8.09945 11.0766 10.7734 12.4224L12.1989 10.9969C12.3273 10.8685 12.5088 10.8154 12.6859 10.8508L16.5773 11.6831C16.8208 11.7362 16.9979 11.9531 16.9979 12.201C16.9979 13.0068 16.8075 13.7682 16.4312 14.4677C16.0771 15.1229 15.5679 15.6984 14.9526 16.1279C14.3416 16.5573 13.6333 16.8406 12.8984 16.9469C12.6726 16.9823 12.4424 17 12.2166 17ZM4.36742 1.08464C3.30492 1.19974 2.36195 1.75755 1.73773 2.65182C1.03382 3.65677 0.870023 4.89193 1.28617 6.04297C2.92419 10.5497 6.44815 14.0737 10.9549 15.7117C12.106 16.1279 13.3411 15.9641 14.3461 15.2602C15.2403 14.6359 15.7981 13.693 15.9133 12.6305L12.7479 11.9531L11.2604 13.4406C11.101 13.6 10.8619 13.6398 10.6583 13.5469C7.49737 12.0638 4.93851 9.50495 3.45544 6.34401C3.35804 6.14036 3.40231 5.9013 3.56169 5.74193L5.04476 4.25L4.36742 1.08464Z" fill="white"/>
</svg>
